<?xml version="1.0" encoding="UTF-8"?>
<!DOCTYPE svg PUBLIC "-//W3C//DTD SVG 1.1//EN" "http://www.w3.org/Graphics/SVG/1.1/DTD/svg11.dtd">
<svg xmlns="http://www.w3.org/2000/svg" xmlns:xlink="http://www.w3.org/1999/xlink" version="1.1" width="863px" height="363px" viewBox="-0.5 -0.5 863 363"><defs/><g><rect x="161" y="1" width="240" height="190" rx="15.2" ry="15.2" fill="none" stroke="#99ffff" stroke-width="3" pointer-events="all"/><g fill="#99FFFF" font-family="Helvetica" font-size="26px"><text x="162.5" y="32.5">服务器 2</text></g><rect x="581" y="1" width="280" height="360" rx="19.6" ry="19.6" fill="none" stroke="#99ffff" stroke-width="3" pointer-events="all"/><g fill="#99FFFF" font-family="Helvetica" font-size="26px"><text x="582.5" y="32.5">服务器 1</text></g><path d="M 591 331 L 581 331 Q 571 331 571 341 L 571 346 Q 571 351 561 351 L 41 351 Q 31 351 31 341 L 31 321.1" fill="none" stroke="#66ff66" stroke-width="3" stroke-miterlimit="10" pointer-events="stroke"/><path d="M 31 314.35 L 35.5 323.35 L 31 321.1 L 26.5 323.35 Z" fill="#66ff66" stroke="#66ff66" stroke-width="3" stroke-miterlimit="10" pointer-events="all"/><path d="M 786 176 L 786 129.24" fill="none" stroke="#66ff66" stroke-width="2" stroke-miterlimit="10" pointer-events="stroke"/><path d="M 786 123.24 L 790 131.24 L 786 129.24 L 782 131.24 Z" fill="#66ff66" stroke="#66ff66" stroke-width="2" stroke-miterlimit="10" pointer-events="all"/><rect x="161" y="231" width="240" height="100" rx="8" ry="8" fill="none" stroke="#99ffff" stroke-width="3" pointer-events="all"/><g fill="#99FFFF" font-family="Helvetica" font-size="26px"><text x="162.5" y="262.5">服务器 3</text></g><path d="M 171 296 L 156 296 Q 146 296 146 306 L 146 321 Q 146 331 136 331 L 101 331 Q 91 331 91 326.05 L 91 321.1" fill="none" stroke="#66ff66" stroke-width="3" stroke-miterlimit="10" pointer-events="stroke"/><path d="M 91 314.35 L 95.5 323.35 L 91 321.1 L 86.5 323.35 Z" fill="#66ff66" stroke="#66ff66" stroke-width="3" stroke-miterlimit="10" pointer-events="all"/><path d="M 591 291 L 399.43 290.32" fill="none" stroke="#66ff66" stroke-width="2" stroke-miterlimit="10" pointer-events="stroke"/><path d="M 393.43 290.29 L 401.44 286.32 L 399.43 290.32 L 401.41 294.32 Z" fill="#66ff66" stroke="#66ff66" stroke-width="2" stroke-miterlimit="10" pointer-events="all"/><g fill="#66FF66" font-family="Helvetica" text-anchor="middle" font-size="26px"><text x="492.32" y="286.45">实时差量同步</text></g><path d="M 591 311 L 501 311 Q 491 311 481 311.02 L 399.24 311.18" fill="none" stroke="#66ff66" stroke-width="2" stroke-miterlimit="10" pointer-events="stroke"/><path d="M 393.24 311.2 L 401.23 307.18 L 399.24 311.18 L 401.24 315.18 Z" fill="#66ff66" stroke="#66ff66" stroke-width="2" stroke-miterlimit="10" pointer-events="all"/><g fill="#66FF66" font-family="Helvetica" text-anchor="middle" font-size="26px"><text x="486.6" y="335.74">定时全量同步</text></g><path d="M 656 121 L 656 167.76" fill="none" stroke="#66ff66" stroke-width="2" stroke-miterlimit="10" pointer-events="stroke"/><path d="M 656 173.76 L 652 165.76 L 656 167.76 L 660 165.76 Z" fill="#66ff66" stroke="#66ff66" stroke-width="2" stroke-miterlimit="10" pointer-events="all"/><path d="M 591 81 L 441 81 Q 431 81 431 91 L 431 101 Q 431 111 421 111 L 399.24 111" fill="none" stroke="#66ff66" stroke-width="2" stroke-miterlimit="10" pointer-events="stroke"/><path d="M 393.24 111 L 401.24 107 L 399.24 111 L 401.24 115 Z" fill="#66ff66" stroke="#66ff66" stroke-width="2" stroke-miterlimit="10" pointer-events="all"/><g fill="#66FF66" font-family="Helvetica" text-anchor="middle" font-size="26px"><text x="504.55" y="107.74">静态 HTML</text></g><rect x="591" y="41" width="260" height="80" rx="12" ry="12" fill="none" stroke="#ff99ff" stroke-width="3" pointer-events="all"/><g fill="#FF99FF" font-family="Helvetica" text-anchor="middle" font-size="26px"><text x="720.5" y="92.5">团队官网</text></g><rect x="653.5" y="136" width="135" height="25" fill="none" stroke="none" pointer-events="all"/><g fill="#66FF66" font-family="Helvetica" text-anchor="middle" font-size="26px"><text x="720.5" y="160">数据库数据</text></g><path d="M 171 111 L 131.1 111" fill="none" stroke="#66ff66" stroke-width="3" stroke-miterlimit="10" pointer-events="stroke"/><path d="M 124.35 111 L 133.35 106.5 L 131.1 111 L 133.35 115.5 Z" fill="#66ff66" stroke="#66ff66" stroke-width="3" stroke-miterlimit="10" pointer-events="all"/><rect x="171" y="41" width="220" height="140" rx="7" ry="7" fill="none" stroke="#ff99ff" stroke-width="3" pointer-events="all"/><g fill="#FF99FF" font-family="Helvetica" text-anchor="middle" font-size="26px"><text x="280.5" y="122.5">CDN 页面缓存</text></g><ellipse cx="61" cy="111" rx="60" ry="40" fill="none" stroke="#ffff99" stroke-width="3" pointer-events="all"/><g fill="#FFFF99" font-family="Helvetica" text-anchor="middle" font-size="26px"><text x="60.5" y="122.5">用户</text></g><path d="M 61 251 L 61 161.1" fill="none" stroke="#66ff66" stroke-width="3" stroke-miterlimit="10" pointer-events="stroke"/><path d="M 61 154.35 L 65.5 163.35 L 61 161.1 L 56.5 163.35 Z" fill="#66ff66" stroke="#66ff66" stroke-width="3" stroke-miterlimit="10" pointer-events="all"/><rect x="1" y="251" width="120" height="60" rx="9" ry="9" fill="none" stroke="#cc99ff" stroke-width="3" pointer-events="all"/><g fill="#CC99FF" font-family="Helvetica" text-anchor="middle" font-size="26px"><text x="60.5" y="292.5">下载中心</text></g><rect x="591" y="271" width="260" height="80" rx="13.6" ry="13.6" fill="none" stroke="#ff99ff" stroke-width="3" pointer-events="all"/><g fill="#FF99FF" font-family="Helvetica" text-anchor="middle" font-size="26px"><text x="720.5" y="322.5">主 Maven 仓库</text></g><rect x="171" y="271" width="220" height="50" rx="3" ry="3" fill="none" stroke="#ff99ff" stroke-width="3" pointer-events="all"/><g fill="#FF99FF" font-family="Helvetica" text-anchor="middle" font-size="26px"><text x="280.5" y="307.5">备用 Maven 仓库</text></g><rect x="591" y="176" width="260" height="85" rx="8.5" ry="8.5" fill="none" stroke="#ff99ff" stroke-width="3" pointer-events="all"/><g fill="#FF99FF" font-family="Helvetica" text-anchor="middle" font-size="26px"><text x="720.5" y="230">数据库</text></g></g></svg>