<?xml version="1.0" encoding="UTF-8"?>
<!DOCTYPE svg PUBLIC "-//W3C//DTD SVG 1.1//EN" "http://www.w3.org/Graphics/SVG/1.1/DTD/svg11.dtd">
<svg xmlns="http://www.w3.org/2000/svg" xmlns:xlink="http://www.w3.org/1999/xlink" version="1.1" width="1433px" height="747px" viewBox="-0.5 -0.5 1433 747"><defs/><g><path d="M 872 107 L 1312 107 L 1312 302 L 1215.84 302" fill="none" stroke="#99ff99" stroke-width="5" stroke-miterlimit="10" pointer-events="stroke"/><path d="M 1207.59 302 L 1218.59 296.5 L 1215.84 302 L 1218.59 307.5 Z" fill="#99ff99" stroke="#99ff99" stroke-width="5" stroke-miterlimit="10" pointer-events="all"/><g fill="#99FF99" font-family="Helvetica" text-anchor="middle" font-size="46px"><text x="1098" y="151">模组 jar 文件</text></g><path d="M 872 37 L 1422 37 L 1422 664 L 1265.84 664" fill="none" stroke="#99ffff" stroke-width="5" stroke-miterlimit="10" pointer-events="stroke"/><path d="M 1257.59 664 L 1268.59 658.5 L 1265.84 664 L 1268.59 669.5 Z" fill="#99ffff" stroke="#99ffff" stroke-width="5" stroke-miterlimit="10" pointer-events="all"/><g fill="#99FFFF" font-family="Helvetica" text-anchor="middle" font-size="46px"><text x="1147" y="80">模组版本文件</text></g><rect x="532" y="2" width="340" height="140" rx="21" ry="21" fill="none" stroke="#ff99ff" stroke-width="5" pointer-events="all"/><g fill="#FF99FF" font-family="Helvetica" text-anchor="middle" font-size="46px"><text x="701.5" y="93.5">自动构建系统</text></g><path d="M 302 72 L 518.16 72" fill="none" stroke="#cc99ff" stroke-width="5" stroke-miterlimit="10" pointer-events="stroke"/><path d="M 526.41 72 L 515.41 77.5 L 518.16 72 L 515.41 66.5 Z" fill="#cc99ff" stroke="#cc99ff" stroke-width="5" stroke-miterlimit="10" pointer-events="all"/><g fill="#CC99FF" font-family="Helvetica" text-anchor="middle" font-size="46px"><text x="421" y="114">触发</text></g><rect x="2" y="29.5" width="300" height="85" rx="12.75" ry="12.75" fill="none" stroke="#ffcc99" stroke-width="5" pointer-events="all"/><g fill="#FFCC99" font-family="Helvetica" text-anchor="middle" font-size="46px"><text x="151.5" y="93.5">创建 Release</text></g><path d="M 852 257 L 545.84 257" fill="none" stroke="#99ff99" stroke-width="5" stroke-miterlimit="10" pointer-events="stroke"/><path d="M 537.59 257 L 548.59 251.5 L 545.84 257 L 548.59 262.5 Z" fill="#99ff99" stroke="#99ff99" stroke-width="5" stroke-miterlimit="10" pointer-events="all"/><g fill="#99FF99" font-family="Helvetica" text-anchor="middle" font-size="46px"><text x="702" y="300">实时差量同步</text></g><path d="M 852 347 L 545.84 347" fill="none" stroke="#99ff99" stroke-width="5" stroke-miterlimit="10" pointer-events="stroke"/><path d="M 537.59 347 L 548.59 341.5 L 545.84 347 L 548.59 352.5 Z" fill="#99ff99" stroke="#99ff99" stroke-width="5" stroke-miterlimit="10" pointer-events="all"/><g fill="#99FF99" font-family="Helvetica" text-anchor="middle" font-size="46px"><text x="702" y="390">定时全量同步</text></g><rect x="852" y="212" width="350" height="180" rx="27" ry="27" fill="none" stroke="#ffff99" stroke-width="5" pointer-events="all"/><g fill="#FFFF99" font-family="Helvetica" text-anchor="middle" font-size="46px"><text x="1026.5" y="323.5">Maven 主仓库</text></g><rect x="182" y="212" width="350" height="180" rx="27" ry="27" fill="none" stroke="#ffff99" stroke-width="5" pointer-events="all"/><g fill="#FFFF99" font-family="Helvetica" text-anchor="middle" font-size="46px"><text x="356.5" y="323.5">Maven 备用仓库</text></g><path d="M 892 664 L 625.84 664" fill="none" stroke="#99ffff" stroke-width="5" stroke-miterlimit="10" pointer-events="stroke"/><path d="M 617.59 664 L 628.59 658.5 L 625.84 664 L 628.59 669.5 Z" fill="#99ffff" stroke="#99ffff" stroke-width="5" stroke-miterlimit="10" pointer-events="all"/><g fill="#99FFFF" font-family="Helvetica" text-anchor="middle" font-size="46px"><text x="756" y="710">静态 HTML</text></g><rect x="892" y="584" width="360" height="160" rx="24" ry="24" fill="none" stroke="#9999ff" stroke-width="5" pointer-events="all"/><g fill="#9999FF" font-family="Helvetica" text-anchor="middle" font-size="46px"><text x="1071.5" y="658">下载站页面</text><text x="1071.5" y="713">生成系统</text></g><path d="M 362 664 L 270.84 664" fill="none" stroke="#99ffff" stroke-width="5" stroke-miterlimit="10" pointer-events="stroke"/><path d="M 262.59 664 L 273.59 658.5 L 270.84 664 L 273.59 669.5 Z" fill="#99ffff" stroke="#99ffff" stroke-width="5" stroke-miterlimit="10" pointer-events="all"/><rect x="362" y="604" width="250" height="120" rx="18" ry="18" fill="none" stroke="#b3ff66" stroke-width="5" pointer-events="all"/><g fill="#B3FF66" font-family="Helvetica" text-anchor="middle" font-size="46px"><text x="486.5" y="658">下载站</text><text x="486.5" y="713">静态页面</text></g><ellipse cx="129.5" cy="664" rx="127.5" ry="65.75" fill="none" stroke="#ff99cc" stroke-width="5" pointer-events="all"/><g fill="#FF99CC" font-family="Helvetica" text-anchor="middle" font-size="46px"><text x="129" y="685.5">用户</text></g></g></svg>