<?xml version="1.0" encoding="UTF-8"?>
<!DOCTYPE svg PUBLIC "-//W3C//DTD SVG 1.1//EN" "http://www.w3.org/Graphics/SVG/1.1/DTD/svg11.dtd">
<svg xmlns="http://www.w3.org/2000/svg" xmlns:xlink="http://www.w3.org/1999/xlink" version="1.1" width="1215px" height="605px" viewBox="-0.5 -0.5 1215 605"><defs/><g><path d="M 797 107 L 1147.11 107.11 Q 1157.11 107.11 1157.11 117.11 L 1157.11 252 Q 1157.11 262 1147.11 262 L 1120.84 262" fill="none" stroke="#99ff99" stroke-width="5" stroke-miterlimit="10" pointer-events="stroke"/><path d="M 1112.59 262 L 1123.59 256.5 L 1120.84 262 L 1123.59 267.5 Z" fill="#99ff99" stroke="#99ff99" stroke-width="5" stroke-miterlimit="10" pointer-events="all"/><g fill="#99FF99" font-family="sans-serif" text-anchor="middle" font-size="46px"><text x="971.83" y="150.7">Mod jar 文件</text></g><path d="M 797 37 L 1192 37.11 Q 1202 37.11 1202 47.11 L 1202 514 Q 1202 524 1192 524 L 1150.95 524" fill="none" stroke="#99ffff" stroke-width="5" stroke-miterlimit="10" pointer-events="stroke"/><path d="M 1142.7 524 L 1153.7 518.5 L 1150.95 524 L 1153.7 529.5 Z" fill="#99ffff" stroke="#99ffff" stroke-width="5" stroke-miterlimit="10" pointer-events="all"/><g fill="#99FFFF" font-family="sans-serif" text-anchor="middle" font-size="46px"><text x="993.39" y="80.67">Mod 版本信息</text></g><rect x="457" y="2" width="340" height="140" rx="21" ry="21" fill="none" stroke="#ff99ff" stroke-width="5" pointer-events="all"/><g fill="#FF99FF" font-family="sans-serif" text-anchor="middle" font-size="46px"><text x="626.5" y="93.5">自动构建系统</text></g><path d="M 302 72 L 443.16 72" fill="none" stroke="#cc99ff" stroke-width="5" stroke-miterlimit="10" pointer-events="stroke"/><path d="M 451.41 72 L 440.41 77.5 L 443.16 72 L 440.41 66.5 Z" fill="#cc99ff" stroke="#cc99ff" stroke-width="5" stroke-miterlimit="10" pointer-events="all"/><g fill="#CC99FF" font-family="sans-serif" text-anchor="middle" font-size="46px"><text x="376.17" y="114.61">触发</text></g><rect x="2" y="29.5" width="300" height="85" rx="42.5" ry="42.5" fill="none" stroke="#ffcc99" stroke-width="5" pointer-events="all"/><g fill="#FFCC99" font-family="sans-serif" text-anchor="middle" font-size="46px"><text x="151.5" y="93.5">创建 Release</text></g><path d="M 757 217 L 450.84 217" fill="none" stroke="#99ff99" stroke-width="5" stroke-miterlimit="10" pointer-events="stroke"/><path d="M 442.59 217 L 453.59 211.5 L 450.84 217 L 453.59 222.5 Z" fill="#99ff99" stroke="#99ff99" stroke-width="5" stroke-miterlimit="10" pointer-events="all"/><g fill="#99FF99" font-family="sans-serif" text-anchor="middle" font-size="46px"><text x="606.94" y="260.61">实时差量同步</text></g><path d="M 757 307 L 450.84 307" fill="none" stroke="#99ff99" stroke-width="5" stroke-miterlimit="10" pointer-events="stroke"/><path d="M 442.59 307 L 453.59 301.5 L 450.84 307 L 453.59 312.5 Z" fill="#99ff99" stroke="#99ff99" stroke-width="5" stroke-miterlimit="10" pointer-events="all"/><g fill="#99FF99" font-family="sans-serif" text-anchor="middle" font-size="46px"><text x="608.5" y="350.61">定时全量同步</text></g><path d="M 844.5 352 L 844.45 397.56 Q 844.44 407.56 834.44 407.56 L 469.56 407.56 Q 459.56 407.56 459.55 417.56 L 459.51 449.16" fill="none" stroke="#ff99ff" stroke-width="5" stroke-miterlimit="10" pointer-events="stroke"/><path d="M 459.51 457.41 L 454.02 446.4 L 459.51 449.16 L 465.02 446.42 Z" fill="#ff99ff" stroke="#ff99ff" stroke-width="5" stroke-miterlimit="10" pointer-events="all"/><g fill="#FF99FF" font-family="sans-serif" text-anchor="middle" font-size="46px"><text x="398.61" y="404.17">Mod 文件</text></g><rect x="757" y="172" width="350" height="180" rx="27" ry="27" fill="none" stroke="#ffff99" stroke-width="5" pointer-events="all"/><g fill="#FFFF99" font-family="sans-serif" text-anchor="middle" font-size="46px"><text x="931.5" y="283.5">Maven 主仓库</text></g><path d="M 262 352 L 262 397.56 Q 262 407.56 272 407.56 L 324.44 407.56 Q 334.44 407.56 334.45 417.56 L 334.49 449.16" fill="none" stroke="#ff99ff" stroke-width="5" stroke-miterlimit="10" pointer-events="stroke"/><path d="M 334.49 457.41 L 328.98 446.42 L 334.49 449.16 L 339.98 446.4 Z" fill="#ff99ff" stroke="#ff99ff" stroke-width="5" stroke-miterlimit="10" pointer-events="all"/><rect x="87" y="172" width="350" height="180" rx="27" ry="27" fill="none" stroke="#ffff99" stroke-width="5" pointer-events="all"/><g fill="#FFFF99" font-family="sans-serif" text-anchor="middle" font-size="46px"><text x="261.5" y="283.5">Maven 备用仓库</text></g><path d="M 777 523 L 649.56 523.11 L 535.84 522.57" fill="none" stroke="#99ffff" stroke-width="5" stroke-miterlimit="10" pointer-events="stroke"/><path d="M 527.59 522.53 L 538.62 517.08 L 535.84 522.57 L 538.56 528.08 Z" fill="#99ffff" stroke="#99ffff" stroke-width="5" stroke-miterlimit="10" pointer-events="all"/><g fill="#99FFFF" font-family="sans-serif" text-anchor="middle" font-size="46px"><text x="658.28" y="563.07">静态 HTML</text></g><rect x="777" y="444" width="360" height="158" rx="23.7" ry="23.7" fill="none" stroke="#9999ff" stroke-width="5" pointer-events="all"/><g fill="#9999FF" font-family="sans-serif" text-anchor="middle" font-size="46px"><text x="956.5" y="517">下载站页面</text><text x="956.5" y="572">生成系统</text></g><path d="M 272 522.5 L 244.44 522.44 L 230.84 522.22" fill="none" stroke="#99ffff" stroke-width="5" stroke-miterlimit="10" pointer-events="stroke"/><path d="M 222.59 522.09 L 233.68 516.77 L 230.84 522.22 L 233.5 527.77 Z" fill="#99ffff" stroke="#99ffff" stroke-width="5" stroke-miterlimit="10" pointer-events="all"/><rect x="272" y="463" width="250" height="119" rx="17.85" ry="17.85" fill="none" stroke="#b3ff66" stroke-width="5" pointer-events="all"/><g fill="#B3FF66" font-family="sans-serif" text-anchor="middle" font-size="46px"><text x="396.5" y="516.5">下载站</text><text x="396.5" y="571.5">静态页面</text></g><ellipse cx="109.5" cy="522" rx="107.5" ry="80" fill="none" stroke="#ff99cc" stroke-width="5" pointer-events="all"/><g fill="#FF99CC" font-family="sans-serif" text-anchor="middle" font-size="46px"><text x="109" y="543.5">用户</text></g></g></svg>